<svg xmlns="http://www.w3.org/2000/svg" width="200" height="200" viewBox="0 0 200 200">
  <rect width="200" height="200" fill="white"/>
  <!-- QR Code Pattern (simplified) -->
  <g fill="#4CAF50">
    <!-- Position detection patterns (corners) -->
    <rect x="20" y="20" width="30" height="30"/>
    <rect x="25" y="25" width="20" height="20" fill="white"/>
    <rect x="30" y="30" width="10" height="10"/>
    
    <rect x="150" y="20" width="30" height="30"/>
    <rect x="155" y="25" width="20" height="20" fill="white"/>
    <rect x="160" y="30" width="10" height="10"/>
    
    <rect x="20" y="150" width="30" height="30"/>
    <rect x="25" y="155" width="20" height="20" fill="white"/>
    <rect x="30" y="160" width="10" height="10"/>
    
    <!-- Timing patterns -->
    <rect x="60" y="20" width="10" height="10"/>
    <rect x="80" y="20" width="10" height="10"/>
    <rect x="100" y="20" width="10" height="10"/>
    <rect x="120" y="20" width="10" height="10"/>
    
    <rect x="20" y="60" width="10" height="10"/>
    <rect x="20" y="80" width="10" height="10"/>
    <rect x="20" y="100" width="10" height="10"/>
    <rect x="20" y="120" width="10" height="10"/>
    
    <!-- Data pattern (simplified) -->
    <rect x="60" y="40" width="10" height="10"/>
    <rect x="70" y="40" width="10" height="10"/>
    <rect x="90" y="40" width="10" height="10"/>
    <rect x="100" y="40" width="10" height="10"/>
    <rect x="130" y="40" width="10" height="10"/>
    <rect x="140" y="40" width="10" height="10"/>
    
    <rect x="40" y="50" width="10" height="10"/>
    <rect x="80" y="50" width="10" height="10"/>
    <rect x="110" y="50" width="10" height="10"/>
    <rect x="150" y="50" width="10" height="10"/>
    
    <rect x="60" y="60" width="10" height="10"/>
    <rect x="90" y="60" width="10" height="10"/>
    <rect x="110" y="60" width="10" height="10"/>
    <rect x="130" y="60" width="10" height="10"/>
    
    <rect x="40" y="70" width="10" height="10"/>
    <rect x="60" y="70" width="10" height="10"/>
    <rect x="80" y="70" width="10" height="10"/>
    <rect x="100" y="70" width="10" height="10"/>
    <rect x="140" y="70" width="10" height="10"/>
    
    <rect x="50" y="80" width="10" height="10"/>
    <rect x="70" y="80" width="10" height="10"/>
    <rect x="130" y="80" width="10" height="10"/>
    <rect x="150" y="80" width="10" height="10"/>
    
    <rect x="40" y="90" width="10" height="10"/>
    <rect x="60" y="90" width="10" height="10"/>
    <rect x="80" y="90" width="10" height="10"/>
    <rect x="100" y="90" width="10" height="10"/>
    <rect x="120" y="90" width="10" height="10"/>
    <rect x="140" y="90" width="10" height="10"/>
    
    <rect x="50" y="100" width="10" height="10"/>
    <rect x="90" y="100" width="10" height="10"/>
    <rect x="110" y="100" width="10" height="10"/>
    <rect x="130" y="100" width="10" height="10"/>
    <rect x="150" y="100" width="10" height="10"/>
    
    <rect x="40" y="110" width="10" height="10"/>
    <rect x="60" y="110" width="10" height="10"/>
    <rect x="120" y="110" width="10" height="10"/>
    <rect x="140" y="110" width="10" height="10"/>
    
    <rect x="50" y="120" width="10" height="10"/>
    <rect x="70" y="120" width="10" height="10"/>
    <rect x="90" y="120" width="10" height="10"/>
    <rect x="110" y="120" width="10" height="10"/>
    <rect x="150" y="120" width="10" height="10"/>
    
    <rect x="40" y="130" width="10" height="10"/>
    <rect x="60" y="130" width="10" height="10"/>
    <rect x="80" y="130" width="10" height="10"/>
    <rect x="120" y="130" width="10" height="10"/>
    <rect x="140" y="130" width="10" height="10"/>
    
    <rect x="50" y="140" width="10" height="10"/>
    <rect x="90" y="140" width="10" height="10"/>
    <rect x="110" y="140" width="10" height="10"/>
    <rect x="130" y="140" width="10" height="10"/>
    
    <rect x="60" y="150" width="10" height="10"/>
    <rect x="80" y="150" width="10" height="10"/>
    <rect x="100" y="150" width="10" height="10"/>
    <rect x="120" y="150" width="10" height="10"/>
    <rect x="140" y="150" width="10" height="10"/>
    
    <rect x="60" y="160" width="10" height="10"/>
    <rect x="110" y="160" width="10" height="10"/>
    <rect x="150" y="160" width="10" height="10"/>
    
    <rect x="70" y="170" width="10" height="10"/>
    <rect x="90" y="170" width="10" height="10"/>
    <rect x="130" y="170" width="10" height="10"/>
    
  </g>
  
  <!-- REUSE Label Logo Overlay -->
  <circle cx="100" cy="100" r="30" fill="white" opacity="0.8"/>
  <text x="100" y="105" font-family="Arial, sans-serif" font-size="12" text-anchor="middle" fill="#4CAF50" font-weight="bold">REUSE</text>
</svg> 